# xmcd
#
# Track frame offsets:
#	150
#	8982
#	19595
#	30930
#	41927
#	51612
#	63537
#	76622
#	87752
#	98102
#	108157
#	119492
#	128662
#	141542
#	150855
#	161935
#	171462
#	183740
#	193832
#	203110
#	212687
#	222057
#	230690
#	241110
#	250425
#	258892
#	267355
#	276077
#	287232
#	298675
#	309422
#	318970
#
# Disc length: 4368 seconds
#
# Revision: 1
# Processed by: cddbd v1.5.2PL0 Copyright (c) Steve Scherf et al.
# Submitted via: audiograbber 1.83.01
#
DISCID=d8110e20
DTITLE=Faron Young - Hi Tone Poppa
DYEAR=2006
DGENRE=Country
TTITLE0=Alone With You
TTITLE1=If You Ain't Lovin" (You Ain't Livin')
TTITLE2=A Place For Girls Like You
TTITLE3=Just Married
TTITLE4=Honey Stop! (And Think Of Me)
TTITLE5=Goin' Steady
TTITLE6=Hi-Tone Poppa
TTITLE7=That's What I'd Do For You
TTITLE8=Live Fast, Love Hard, Die Young
TTITLE9=I'm Gonna Tell Santa Clause On You
TTITLE10=Snowball
TTITLE11=Go Back, You Fool
TTITLE12=Hot Rod Shotgun Boogie, No. 2
TTITLE13=I's A Great Life (If You Don't Weaken)
TTITLE14=All Right
TTITLE15=I've Got Five Dollars And It's Saturday Night
TTITLE16=Sweet Dreams
TTITLE17=Rosalie (Is Gonna Get Married)
TTITLE18=Let Old Mother Nature Have Her Way
TTITLE19=I'm  A Poor Boy
TTITLE20=I'm Gonna Live Some Before I Die
TTITLE21=That's The Way It's Gotta Be
TTITLE22=I Can't Dance
TTITLE23=I Made A Fool Of Myself
TTITLE24=That's The Way I Feel
TTITLE25=Last Night At A Party
TTITLE26=I Hate Myself (For Falling In Love With You)
TTITLE27=When It Rains It Pours
TTITLE28=Chattanooga Shoe Shine Boy
TTITLE29=Hello Walls
TTITLE30=I Hear You Talkin'
TTITLE31=Goin' Steady
EXTD=
EXTT0=
EXTT1=
EXTT2=
EXTT3=
EXTT4=
EXTT5=
EXTT6=
EXTT7=
EXTT8=
EXTT9=
EXTT10=
EXTT11=
EXTT12=
EXTT13=
EXTT14=
EXTT15=
EXTT16=
EXTT17=
EXTT18=
EXTT19=
EXTT20=
EXTT21=
EXTT22=
EXTT23=
EXTT24=
EXTT25=
EXTT26=
EXTT27=
EXTT28=
EXTT29=
EXTT30=
EXTT31=
PLAYORDER=
